{"title":"Gantz 2011 English DUBBED 720p HDRip x264.Feel-Free","uid":6179629,"size":2597429307,"categoryP":"video","categoryS":"hd___movies","magnet":"?xt=urn:btih:d1ee9243bc2abc6408e0ae14737f35bfa48aeaf8&amp;dn=Gantz+2011+English+DUBBED+720p+HDRip+x264.Feel-Free&amp;tr=udp%3A%2F%2Ftracker.openbittorrent.com%3A80&amp;tr=udp%3A%2F%2Fopen.demonii.com%3A1337&amp;tr=udp%3A%2F%2Ftracker.coppersurfer.tk%3A6969&amp;tr=udp%3A%2F%2Fexodus.desync.com%3A6969","seeders":0,"leechers":3,"uploader":"neon","files":-1,"time":1297901559,"description":"Genre:Action\nLanguage:English dubbed\n &lt;a href=&quot; http://www.imdb.com/title/tt1525835/&quot; rel=&quot;nofollow&quot; target=&quot;_NEW&quot;&gt; http://www.imdb.com/title/tt1525835/&lt;/a&gt;\nSource:HDTV 1080i\n\n\nFormat : MPEG-4\nFormat profile : Base Media\nCodec ID : isom\nFile size : 2.41 GiB\nDuration : 2h 10mn\nOverall bit rate : 2 642 Kbps\n\n\nVideo\nFormat settings, CABAC : Yes\nFormat settings, ReFrames : 3 frames\nCodec ID : avc1\nCodec ID/Info : Advanced Video Coding\nDuration : 2h 10mn\nBit rate mode : Variable\nBit rate : 2 214 Kbps\nMaximum bit rate : 14.0 Mbps\nWidth : 1 280 pixels\nHeight : 720 pixels\nDisplay aspect ratio : 16:9\nFrame rate mode : Constant\nFrame rate : 23.976 fps\nColor space : YUV\nChroma subsampling : 4:2:0\nBit depth : 8 bits\nScan type : Progressive\nBits/(Pixel*Frame) : 0.100\nStream size : 2.01 GiB (83%)\nWriting library : x264\n\n\nAudio\nID : 2\nFormat : AAC\nFormat/Info : Advanced Audio Codec\nFormat version : Version 4\nFormat profile : LC\nFormat settings, SBR : No\nCodec ID : 40\nDuration : 2h 10mn\nBit rate mode : Variable\nBit rate : 443 Kbps\nMaximum bit rate : 599 Kbps\nChannel(s) : 6 channels\nChannel positions : Front: L C R, Side: L R, LFE\nSampling rate : 48.0 KHz\nStream size : 415 MiB (17%)\n\n\nPlot:\nAfter trying to rescue a man on the subway tracks, two teens wake up in a room dominated by a mysterious black sphere that sends them to hunt down and kill aliens hiding on Earth.\n &lt;a href=&quot;\nhttp://www.postimg.com/29000/28311.jpg&quot; rel=&quot;nofollow&quot; target=&quot;_NEW&quot;&gt;\nhttp://www.postimg.com/29000/28311.jpg&lt;/a&gt; &lt;a href=&quot;\nhttp://www.postimg.com/29000/28316.jpg&quot; rel=&quot;nofollow&quot; target=&quot;_NEW&quot;&gt;\nhttp://www.postimg.com/29000/28316.jpg&lt;/a&gt; &lt;a href=&quot;\nhttp://www.postimg.com/29000/28313.jpg&quot; rel=&quot;nofollow&quot; target=&quot;_NEW&quot;&gt;\nhttp://www.postimg.com/29000/28313.jpg&lt;/a&gt; &lt;a href=&quot;\nhttp://www.postimg.com/29000/28314.jpg&quot; rel=&quot;nofollow&quot; target=&quot;_NEW&quot;&gt;\nhttp://www.postimg.com/29000/28314.jpg&lt;/a&gt;\n","torrent":{"xt":"urn:btih:d1ee9243bc2abc6408e0ae14737f35bfa48aeaf8","amp;dn":"Gantz+2011+English+DUBBED+720p+HDRip+x264.Feel-Free","amp;tr":["udp%3A%2F%2Ftracker.openbittorrent.com%3A80","udp%3A%2F%2Fopen.demonii.com%3A1337","udp%3A%2F%2Ftracker.coppersurfer.tk%3A6969","udp%3A%2F%2Fexodus.desync.com%3A6969"],"infoHash":"d1ee9243bc2abc6408e0ae14737f35bfa48aeaf8","infoHashBuffer":{"type":"Buffer","data":[209,238,146,67,188,42,188,100,8,224,174,20,115,127,53,191,164,138,234,248]},"announce":[],"urlList":[]}}